<svg xmlns="http://www.w3.org/2000/svg" xmlns:xlink="http://www.w3.org/1999/xlink" aria-hidden="true" role="img" class="iconify iconify--logos" width="31.88" height="32" preserveAspectRatio="xMidYMid meet" viewBox="0 0 256 257"><defs><linearGradient id="IconifyId1813088fe1fbc01fb466" x1="-.828%" x2="57.636%" y1="7.652%" y2="78.411%"><stop offset="0%" stop-color="#544532"></stop><stop offset="100%" stop-color="#BD34FE"></stop></linearGradient><linearGradient id="IconifyId1813088fe1fbc01fb467" x1="43.376%" x2="50.316%" y1="2.242%" y2="89.03%"><stop offset="0%" stop-color="#FFEA83"></stop><stop offset="8.333%" stop-color="#FFDD35"></stop><stop offset="100%" stop-color="#FFA800"></stop></linearGradient></defs><path fill="url(#IconifyId1813088fe1fbc01fb466)" d="m 352.717,337.866 c 4.137,-3.621 8.274,-7.24 12.409,-10.86 10.312,-9.024 16.225,-22.057 16.225,-35.758 0,-13.7 -5.913,-26.732 -16.225,-35.758 -32.933,-28.822 -82.11,-28.822 -115.044,0 3.258,-4.739 6.516,-9.474 9.772,-14.215 23.14,-33.654 67.316,-45.489 104.182,-27.913 L 342.028,196.859 C 303.01,167.598 254.902,156.527 208.999,163.64 c 18.581,3.601 36.451,10.571 52.691,20.667 l 8.216,5.108 c -38.617,-14.338 -81.095,-14.338 -119.708,0 l -20.047,7.444 c -7.617,-1.021 -15.234,-2.045 -22.851,-3.066 -1.612,0.612 -3.216,1.225 -4.8,1.846 -4.085,1.608 -18.709,7.513 -20.891,11.345 -4.06,9.952 -2.269,52.304 -1.65,64.111 0.744,14.164 1.842,28.381 3.42,42.477 1.146,10.213 8.864,27.202 18.863,45.675 -3.092,-12.561 -5.116,-25.316 -6.034,-38.173 l -2.423,-33.937 3.221,20.625 c 5.869,31.433 15.824,62.246 29.684,91.905 l 2.378,5.088 c 8.898,14.221 16.969,26.532 21.855,34.02 16.276,24.946 32.965,49.607 49.389,74.456 9.074,13.729 18.146,27.459 27.217,41.189 0.172,0.258 0.342,0.515 0.514,0.774 0.141,0.274 0.284,0.547 0.426,0.821 8.241,15.894 14.096,36.851 29.989,45.093 19.032,9.871 39.392,22.154 57.453,33.702 1.507,0.961 17.804,-3.353 18.628,-4.94 3.362,-6.482 6.674,-16.711 10.614,-22.856 2.522,-3.931 6.221,-10.788 10.833,-19.348 4.608,-8.56 2.181,-16.468 -10.299,-11.945 10.271,-10.77 -4.782,-18.852 -13.725,-11.109 9.593,-9.934 -1.687,-19.059 -9.738,-11.23 1.289,-11.754 -18.657,-17.242 -31.168,-12.213 -3.046,1.225 -2.074,10.503 13.218,11.373 -7.456,2.581 -12.936,8.932 -13.059,18.131 -11.327,-16.491 -23.337,-17.942 -35.848,-8.374 -21.254,-44.32 -42.51,-88.64 -63.765,-132.96 2.146,-57.786 -13.152,-114.883 -43.903,-163.856 -2.732,-4.349 -5.465,-8.701 -8.198,-13.05 24.51,-6.434 50.594,0.557 68.606,18.38 4.758,4.709 9.515,9.418 14.273,14.128 2.677,4.389 5.353,8.778 8.027,13.165 25.585,41.957 77.883,58.296 122.31,39.76 m 144.787,38.45 c -10.956,0.297 -21.914,0.593 -32.871,0.888 -29.528,0.798 -56.999,-15.062 -71.071,-41.033 -7.698,4.201 -15.397,8.403 -23.094,12.605 -54.485,29.741 -122.717,11.456 -155.031,-41.541 3.704,12.368 7.408,24.734 11.112,37.098 2.962,29.021 5.922,58.042 8.882,87.063 3.822,37.436 13.623,74.017 29.034,108.347 5.131,-2.061 10.256,-4.123 15.387,-6.184 22.44,-9.019 48.145,-2.133 63.068,16.899 8.886,1.771 28.062,1.409 26.215,14.416 -1.851,13.008 -4.969,9.96 -3.111,19.323 1.858,9.361 -16.583,31.981 -24.872,47.971 -2.665,5.132 -7.359,8.909 -12.945,10.405 -5.581,1.495 -11.538,0.574 -16.409,-2.539 -17.621,-11.264 -35.739,-21.726 -54.304,-31.353 -19.107,-9.909 -34.683,-25.485 -44.593,-44.592 -9.074,-13.731 -18.146,-27.46 -27.22,-41.191 C 141.633,456.246 70.245,353.821 65.953,315.525 61.662,277.228 58.829,215.604 65.54,199.974 c 6.71,-15.628 39.298,-22.21 55.731,-31.095 94.239,-50.944 229.129,-45.173 323.369,5.771 5.331,-19.543 10.66,-39.086 15.992,-58.632 9.885,-36.249 28.982,-69.326 55.432,-96.014 -33.992,76.706 -36.588,141.542 -32.334,182.187 2.96,-6.809 5.921,-13.622 8.883,-20.432 10.272,-23.628 23.196,-46.011 38.521,-66.72 17.598,-23.779 49.278,-32.268 76.41,-20.473 -14.301,0.915 -25.087,5.464 -34.017,14.265 0.954,-0.092 1.931,-0.143 2.923,-0.143 11.103,0 20.102,6.066 20.102,13.548 0,7.481 -8.999,13.546 -20.102,13.546 -8.674,0 -16.063,-3.701 -18.881,-8.894 -26.052,32.879 -40.754,71.24 -40.081,118.835 -28.427,27.242 -84.839,38.939 -85.285,81.728 2.541,30.157 26.631,44.769 65.301,48.865"></path></svg>